<?xml version="1.0" standalone="no"?><!DOCTYPE svg PUBLIC "-//W3C//DTD SVG 1.1//EN" "http://www.w3.org/Graphics/SVG/1.1/DTD/svg11.dtd"><svg t="1555649506167" class="icon" style="" viewBox="0 0 1024 1024" version="1.1" xmlns="http://www.w3.org/2000/svg" p-id="1469" xmlns:xlink="http://www.w3.org/1999/xlink" width="200" height="200"><defs><style type="text/css"></style></defs><path d="M0 0" p-id="1470"></path><path d="M921.6 853.333333H102.4c-56.456533 0-102.4-45.943467-102.4-102.4V273.066667c0-56.456533 45.943467-102.4 102.4-102.4h819.2c56.456533 0 102.4 45.943467 102.4 102.4v477.866666c0 56.456533-45.943467 102.4-102.4 102.4zM102.4 204.8c-37.649067 0-68.266667 30.583467-68.266667 68.266667v477.866666c0 37.6832 30.6176 68.266667 68.266667 68.266667h819.2c37.6832 0 68.266667-30.583467 68.266667-68.266667V273.066667c0-37.6832-30.583467-68.266667-68.266667-68.266667H102.4z" p-id="1471"></path><path d="M797.4912 853.333333h-554.666667c-5.905067 0-11.400533-3.072-14.506666-8.0896a16.930133 16.930133 0 0 1-0.750934-16.554666l85.333334-170.666667c2.901333-5.802667 8.8064-9.4208 15.2576-9.4208h384c6.417067 0 12.356267 3.618133 15.223466 9.4208l85.333334 170.666667c2.6624 5.256533 2.389333 11.5712-0.7168 16.554666-3.072 5.0176-8.6016 8.0896-14.506667 8.0896z m-527.0528-34.133333h499.438933l-68.266666-136.533333H338.705067l-68.266667 136.533333zM221.4912 567.466667c-56.456533 0-102.4-45.943467-102.4-102.4s45.943467-102.4 102.4-102.4 102.4 45.943467 102.4 102.4-45.943467 102.4-102.4 102.4z m0-170.666667c-37.6832 0-68.266667 30.583467-68.266667 68.266667 0 37.649067 30.583467 68.266667 68.266667 68.266666 37.649067 0 68.266667-30.6176 68.266667-68.266666 0-37.6832-30.6176-68.266667-68.266667-68.266667zM818.824533 567.466667c-56.456533 0-102.4-45.943467-102.4-102.4s45.943467-102.4 102.4-102.4c56.4224 0 102.4 45.943467 102.4 102.4s-45.943467 102.4-102.4 102.4z m0-170.666667c-37.6832 0-68.266667 30.583467-68.266666 68.266667 0 37.649067 30.583467 68.266667 68.266666 68.266666 37.649067 0 68.266667-30.6176 68.266667-68.266666 0-37.6832-30.6176-68.266667-68.266667-68.266667zM631.466667 546.133333h-204.8c-9.4208 0-17.066667-7.68-17.066667-17.066666v-136.533334a17.066667 17.066667 0 0 1 17.066667-17.066666h204.8c9.386667 0 17.066667 7.645867 17.066666 17.066666v136.533334c0 9.386667-7.68 17.066667-17.066666 17.066666zM443.733333 512h170.666667v-102.4H443.733333v102.4z" p-id="1472"></path></svg>