<?xml version="1.0" standalone="no"?><!DOCTYPE svg PUBLIC "-//W3C//DTD SVG 1.1//EN" "http://www.w3.org/Graphics/SVG/1.1/DTD/svg11.dtd"><svg t="1555494921212" class="icon" style="" viewBox="0 0 1024 1024" version="1.1" xmlns="http://www.w3.org/2000/svg" p-id="1950" xmlns:xlink="http://www.w3.org/1999/xlink" width="200" height="200"><defs><style type="text/css"></style></defs><path d="M938.671616 819.2H580.271616v-85.333333a17.066667 17.066667 0 1 0-34.133333 0v102.4a17.066667 17.066667 0 0 0 17.066666 17.066666h358.4v85.333334c0 28.228267-22.971733 51.2-51.2 51.2H153.604949c-28.228267 0-51.2-22.971733-51.2-51.2v-85.333334h393.949867a17.066667 17.066667 0 1 0 0-34.133333H85.338283a17.066667 17.066667 0 0 0-17.066667 17.066667v102.4c0 47.0528 38.280533 85.333333 85.333333 85.333333h716.8c47.0528 0 85.333333-38.280533 85.333334-85.333333v-102.4a17.066667 17.066667 0 0 0-17.066667-17.066667" fill="#231F1F" p-id="1951"></path><path d="M733.871616 648.533333H529.071616a17.066667 17.066667 0 1 0 0 34.133334h204.8c47.854933 0 85.333333-37.4784 85.333333-85.333334v-34.133333a17.066667 17.066667 0 0 0-17.066666-17.066667H221.871616a17.066667 17.066667 0 0 0-17.066667 17.066667v34.133333c0 47.854933 37.4784 85.333333 85.333334 85.333334h153.6v85.333333a17.066667 17.066667 0 1 0 34.133333 0v-102.4a17.066667 17.066667 0 0 0-17.066667-17.066667H290.138283c-28.7232 0-51.2-22.493867-51.2-51.2v-17.066666h546.133333v17.066666c0 28.706133-22.4768 51.2-51.2 51.2M512.004949 469.333333a17.066667 17.066667 0 0 0-17.066666 17.066667v8.533333a17.066667 17.066667 0 1 0 34.133333 0v-8.533333a17.066667 17.066667 0 0 0-17.066667-17.066667M529.071616 391.5776a17.066667 17.066667 0 1 0-34.133333 0v18.978133a17.066667 17.066667 0 1 0 34.133333 0v-18.978133M529.071616 307.2c0-2.696533 0.034133-5.358933 0.119467-8.0384a16.964267 16.964267 0 0 0-10.632534-16.162133c-0.648533-0.290133-1.3824-0.290133-2.065066-0.494934-1.28-0.341333-2.491733-0.853333-3.874134-0.887466l-0.512-0.017067-0.1024 0.017067-0.1024-0.017067-0.512 0.017067c-1.3824 0.034133-2.6112 0.546133-3.874133 0.887466-0.682667 0.2048-1.4336 0.2048-2.065067 0.494934a16.964267 16.964267 0 0 0-10.632533 16.162133c0.085333 2.679467 0.119467 5.341867 0.119467 8.0384v8.533333a17.066667 17.066667 0 1 0 34.133333 0V307.2M17.839616 332.817067l-0.6144-0.017067a17.066667 17.066667 0 0 0-17.032533 16.469333A232.106667 232.106667 0 0 0 0.004949 358.4a17.066667 17.066667 0 1 0 34.133334 0c0-2.6624 0.068267-5.290667 0.1536-7.936a17.066667 17.066667 0 0 0-16.452267-17.646933M236.702549 171.246933c5.307733 0.4096 10.5472 1.041067 15.752534 1.8944a17.032533 17.032533 0 0 0 19.592533-14.062933 17.066667 17.066667 0 0 0-14.062933-19.626667 214.9376 214.9376 0 0 0-18.653867-2.235733 17.066667 17.066667 0 1 0-2.628267 34.030933M152.751616 182.6304c1.911467 0 3.857067-0.324267 5.768533-1.006933 4.949333-1.792 10.001067-3.362133 15.138134-4.7104a17.083733 17.083733 0 0 0-8.738134-33.006934c-6.058667 1.604267-12.049067 3.4816-17.937066 5.5808a17.066667 17.066667 0 0 0 5.768533 33.143467M417.865216 296.516267a17.066667 17.066667 0 0 0-12.885333 20.411733c1.1776 5.12 2.0992 10.308267 2.816 15.5648a17.1008 17.1008 0 0 0 19.217066 14.609067 17.066667 17.066667 0 0 0 14.626134-19.2c-0.853333-6.2464-1.979733-12.424533-3.345067-18.517334a17.117867 17.117867 0 0 0-20.4288-12.868266M426.671616 433.834667a17.066667 17.066667 0 0 0 17.066667-17.066667v-17.339733a17.066667 17.066667 0 1 0-34.133334 0v17.339733a17.066667 17.066667 0 0 0 17.066667 17.066667M312.205483 193.774933c4.625067 2.56 9.1648 5.307733 13.550933 8.226134a17.066667 17.066667 0 0 0 18.961067-28.3648 218.112 218.112 0 0 0-16.042667-9.745067 17.083733 17.083733 0 0 0-23.1936 6.7072 17.066667 17.066667 0 0 0 6.724267 23.176533M380.847616 258.491733a17.0496 17.0496 0 0 0 23.534933 5.358934 17.066667 17.066667 0 0 0 5.341867-23.552c-3.345067-5.290667-6.894933-10.4448-10.632533-15.428267a17.083733 17.083733 0 0 0-27.272534 20.548267c3.191467 4.215467 6.1952 8.584533 9.028267 13.073066M46.443349 251.255467a17.066667 17.066667 0 0 0-22.903466 7.611733c-2.798933 5.563733-5.393067 11.281067-7.714134 17.1008a17.066667 17.066667 0 0 0 31.6928 12.680533c1.962667-4.932267 4.1472-9.762133 6.519467-14.4896a17.0496 17.0496 0 0 0-7.594667-22.903466M91.567616 223.232c3.822933-3.6864 7.799467-7.202133 11.895467-10.5472a17.066667 17.066667 0 1 0-21.589334-26.436267c-4.829867 3.959467-9.5232 8.106667-13.994666 12.4416a17.066667 17.066667 0 1 0 23.688533 24.541867M409.604949 494.933333a17.066667 17.066667 0 1 0 34.133334 0v-8.533333a17.066667 17.066667 0 1 0-34.133334 0v8.533333M358.404949 494.933333v-8.533333a17.066667 17.066667 0 1 0-34.133333 0v8.533333a17.066667 17.066667 0 1 0 34.133333 0M209.515349 307.831467a15.633067 15.633067 0 0 0 1.774934-0.085334c5.188267-0.529067 10.5984-0.682667 15.837866-0.426666a16.827733 16.827733 0 0 0 17.885867-16.196267 17.066667 17.066667 0 0 0-16.196267-17.885867 137.1136 137.1136 0 0 0-21.026133 0.546134 17.066667 17.066667 0 1 0 1.723733 34.048M296.964949 339.985067a17.066667 17.066667 0 1 0 25.0368-23.210667 139.1616 139.1616 0 0 0-15.428266-14.267733 17.066667 17.066667 0 1 0-21.230934 26.7264c4.164267 3.310933 8.072533 6.929067 11.6224 10.752M130.104149 350.1568a17.066667 17.066667 0 0 0 13.141334-6.144c3.345067-4.027733 7.048533-7.8336 11.008-11.3152a17.083733 17.083733 0 0 0-22.562134-25.617067c-5.2736 4.642133-10.222933 9.728-14.6944 15.086934a17.1008 17.1008 0 0 0 13.1072 27.989333M338.095616 377.224533a17.066667 17.066667 0 0 0-14.677333 19.1488c0.5632 4.334933 0.853333 8.738133 0.853333 13.226667v2.952533a17.066667 17.066667 0 1 0 34.133333 0V409.6c0-5.956267-0.375467-11.912533-1.143466-17.681067a16.9984 16.9984 0 0 0-19.165867-14.6944M103.923883 384.034133a16.913067 16.913067 0 0 0-18.244267 15.8208A141.824 141.824 0 0 0 85.338283 409.6a17.066667 17.066667 0 1 0 34.133333 0c0-2.4576 0.085333-4.9152 0.256-7.3216a17.066667 17.066667 0 0 0-15.803733-18.244267M453.261483 162.1504a17.015467 17.015467 0 0 0 23.5008 5.376 17.066667 17.066667 0 0 0 5.393066-23.517867 300.765867 300.765867 0 0 0-10.0864-15.069866 17.066667 17.066667 0 1 0-27.767466 19.8656c3.1232 4.352 6.109867 8.8064 8.96 13.346133M480.790016 220.228267c1.706667 5.051733 3.242667 10.154667 4.6592 15.342933a17.083733 17.083733 0 0 0 20.9408 11.9808 16.8448 16.8448 0 0 0 5.614933-2.798933 16.8448 16.8448 0 0 0 10.103467 3.413333c7.492267 0 14.3872-5.000533 16.452267-12.5952 1.416533-5.188267 2.935467-10.2912 4.6592-15.342933a17.066667 17.066667 0 0 0-10.6496-21.6576 16.896 16.896 0 0 0-20.565334 8.789333 16.896 16.896 0 0 0-20.565333-8.789333 17.0496 17.0496 0 0 0-10.6496 21.6576M401.156949 101.2224a16.9472 16.9472 0 0 0 11.195734 4.181333 17.066667 17.066667 0 0 0 11.195733-29.934933c-4.539733-3.976533-9.216-7.799467-14.011733-11.485867a17.066667 17.066667 0 0 0-20.804267 27.050667c4.232533 3.259733 8.379733 6.673067 12.424533 10.1888M156.694016 41.1136a16.725333 16.725333 0 0 0 3.652267-0.392533c5.239467-1.143467 10.530133-2.1504 15.837866-3.003734a17.032533 17.032533 0 0 0 14.165334-19.524266 16.981333 16.981333 0 0 0-19.524267-14.165334c-5.9904 0.955733-11.912533 2.065067-17.7664 3.362134a17.066667 17.066667 0 0 0 3.6352 33.723733M77.180416 71.543467a17.066667 17.066667 0 0 0 8.4992-2.269867c4.625067-2.6624 9.3184-5.1712 14.114133-7.509333a17.083733 17.083733 0 0 0-15.069866-30.634667c-5.461333 2.679467-10.820267 5.5296-16.0768 8.5504a17.066667 17.066667 0 0 0 8.533333 31.863467M240.559616 34.7648c5.393067 0.375467 10.734933 0.887467 16.008533 1.553067a17.066667 17.066667 0 0 0 4.266667-33.860267 296.277333 296.277333 0 0 0-18.005333-1.7408 17.152 17.152 0 0 0-18.176 15.889067 17.066667 17.066667 0 0 0 15.906133 18.158933M318.810283 51.848533c5.0176 1.8944 9.966933 3.959467 14.848 6.144a17.066667 17.066667 0 0 0 13.960533-31.146666c-5.4784-2.4576-11.0592-4.778667-16.708267-6.929067a17.066667 17.066667 0 1 0-12.100266 31.931733M17.071616 119.466667c4.625067 0 9.250133-1.877333 12.612267-5.563734 1.757867-1.928533 3.566933-3.84 5.410133-5.700266a17.066667 17.066667 0 0 0-24.405333-23.893334c-2.0992 2.1504-4.181333 4.352-6.229334 6.587734A17.066667 17.066667 0 0 0 17.071616 119.466667M1023.817216 349.269333a17.066667 17.066667 0 1 0-34.0992 1.194667c0.085333 2.645333 0.1536 5.2736 0.1536 7.936a17.066667 17.066667 0 1 0 34.133333 0 232.106667 232.106667 0 0 0-0.187733-9.130667M695.335083 163.8912c-5.495467 3.0208-10.871467 6.280533-16.042667 9.745067a17.083733 17.083733 0 0 0 9.489067 31.249066 16.810667 16.810667 0 0 0 9.472-2.884266c4.386133-2.9184 8.9088-5.666133 13.550933-8.226134a17.066667 17.066667 0 0 0 6.724267-23.176533 17.083733 17.083733 0 0 0-23.1936-6.7072M784.679083 137.216c-6.314667 0.477867-12.526933 1.2288-18.653867 2.235733a17.066667 17.066667 0 0 0 5.5296 33.6896c5.205333-0.853333 10.4448-1.4848 15.752533-1.8944a17.066667 17.066667 0 0 0 15.701334-18.346666 16.896 16.896 0 0 0-18.3296-15.684267M998.678016 298.154667a17.066667 17.066667 0 0 0 9.506133-22.186667 217.002667 217.002667 0 0 0-7.714133-17.1008 17.0496 17.0496 0 1 0-30.498133 15.291733c2.372267 4.727467 4.5568 9.557333 6.519466 14.4896a17.066667 17.066667 0 0 0 22.186667 9.506134M597.338283 433.834667a17.066667 17.066667 0 0 0 17.066666-17.066667v-17.339733a17.066667 17.066667 0 1 0-34.133333 0v17.339733a17.066667 17.066667 0 0 0 17.066667 17.066667M596.979883 347.101867a17.117867 17.117867 0 0 0 19.234133-14.609067c0.699733-5.256533 1.6384-10.4448 2.798933-15.5648a17.066667 17.066667 0 1 0-33.297066-7.543467c-1.365333 6.0928-2.491733 12.270933-3.345067 18.517334a17.066667 17.066667 0 0 0 14.609067 19.2M877.026816 149.486933a224.887467 224.887467 0 0 0-17.937067-5.5808 17.152 17.152 0 0 0-20.872533 12.1344 17.083733 17.083733 0 0 0 12.1344 20.872534c5.137067 1.348267 10.1888 2.9184 15.138133 4.7104a17.0496 17.0496 0 0 0 21.828267-10.308267 17.066667 17.066667 0 0 0-10.2912-21.828267M624.918016 224.8704c-3.754667 4.983467-7.304533 10.1376-10.632533 15.428267a17.066667 17.066667 0 0 0 28.8768 18.193066c2.833067-4.488533 5.8368-8.8576 9.028266-13.073066a17.083733 17.083733 0 0 0-27.272533-20.548267M942.136149 186.248533a17.066667 17.066667 0 1 0-21.6064 26.436267c4.113067 3.345067 8.0896 6.8608 11.912534 10.5472a17.066667 17.066667 0 0 0 23.688533-24.541867 225.416533 225.416533 0 0 0-13.994667-12.4416M580.271616 494.933333a17.066667 17.066667 0 1 0 34.133333 0v-8.533333a17.066667 17.066667 0 1 0-34.133333 0v8.533333M682.671616 512a17.066667 17.066667 0 0 0 17.066667-17.066667v-8.533333a17.066667 17.066667 0 1 0-34.133334 0v8.533333a17.066667 17.066667 0 0 0 17.066667 17.066667M868.237483 308.599467a17.083733 17.083733 0 0 0 1.518933 24.098133c3.959467 3.4816 7.662933 7.287467 11.008 11.3152a17.066667 17.066667 0 1 0 26.231467-21.845333 136.055467 136.055467 0 0 0-14.677334-15.086934 17.066667 17.066667 0 0 0-24.081066 1.518934M682.671616 429.6192a17.066667 17.066667 0 0 0 17.066667-17.066667V409.6c0-4.488533 0.290133-8.891733 0.853333-13.226667a17.066667 17.066667 0 0 0-14.677333-19.1488 16.9472 16.9472 0 0 0-19.165867 14.6944A137.557333 137.557333 0 0 0 665.604949 409.6v2.952533a17.066667 17.066667 0 0 0 17.066667 17.066667M702.008149 316.7744a17.083733 17.083733 0 0 0 25.0368 23.210667c3.549867-3.822933 7.458133-7.441067 11.6224-10.752a17.066667 17.066667 0 1 0-21.230933-26.7264 139.1616 139.1616 0 0 0-15.428267 14.267733M778.995883 291.1232a16.725333 16.725333 0 0 0 17.885866 16.196267c5.239467-0.256 10.6496-0.1024 15.837867 0.426666a17.066667 17.066667 0 0 0 3.498667-33.962666 137.216 137.216 0 0 0-21.026134-0.546134 17.066667 17.066667 0 0 0-16.196266 17.885867M904.538283 409.6a17.066667 17.066667 0 1 0 34.133333 0 131.754667 131.754667 0 0 0-0.3584-9.745067 17.066667 17.066667 0 0 0-34.030933 2.423467c0.170667 2.4064 0.256 4.864 0.256 7.3216M547.230549 167.5264a17.015467 17.015467 0 0 0 23.517867-5.376c2.850133-4.539733 5.8368-8.994133 8.96-13.346133a17.066667 17.066667 0 0 0-27.767467-19.8656c-3.515733 4.9152-6.877867 9.9328-10.0864 15.069866a17.066667 17.066667 0 0 0 5.376 23.517867M683.388416 59.4944a16.8448 16.8448 0 0 0 6.9632-1.501867c4.881067-2.184533 9.8304-4.2496 14.848-6.144a17.066667 17.066667 0 1 0-12.100267-31.931733c-5.649067 2.1504-11.229867 4.471467-16.708266 6.929067a17.066667 17.066667 0 0 0 6.997333 32.648533M847.825749 37.717333c5.307733 0.853333 10.5984 1.860267 15.8208 3.003734a17.066667 17.066667 0 0 0 7.304534-33.3312c-5.870933-1.297067-11.776-2.4064-17.7664-3.362134a17.015467 17.015467 0 0 0-19.524267 14.165334 17.032533 17.032533 0 0 0 14.165333 19.524266M611.657216 105.403733a17.032533 17.032533 0 0 0 11.195733-4.181333c4.0448-3.515733 8.192-6.929067 12.424534-10.1888a17.066667 17.066667 0 0 0-20.804267-27.050667c-4.795733 3.6864-9.472 7.509333-14.011733 11.485867a17.066667 17.066667 0 0 0 11.195733 29.934933M955.345749 39.68a272.145067 272.145067 0 0 0-16.059733-8.5504 17.134933 17.134933 0 0 0-22.852267 7.7824 17.1008 17.1008 0 0 0 7.7824 22.852267c4.795733 2.338133 9.489067 4.846933 14.097067 7.509333a17.066667 17.066667 0 0 0 17.032533-29.5936M765.291349 36.4544c0.699733 0 1.4336-0.0512 2.1504-0.136533 5.2736-0.6656 10.615467-1.1776 16.008534-1.553067a17.066667 17.066667 0 0 0-2.2528-34.048c-6.075733 0.392533-12.0832 0.989867-18.0224 1.7408a17.0496 17.0496 0 0 0 2.116266 33.9968M994.326016 113.902933a17.032533 17.032533 0 0 0 24.1152 1.109334 17.066667 17.066667 0 0 0 1.109333-24.1152c-2.048-2.235733-4.130133-4.437333-6.229333-6.587734a17.066667 17.066667 0 0 0-24.405333 23.893334c1.8432 1.860267 3.652267 3.771733 5.410133 5.700266M409.604949 904.533333v34.133334a17.066667 17.066667 0 1 0 34.133334 0v-34.133334a17.066667 17.066667 0 1 0-34.133334 0M238.938283 904.533333v34.133334a17.066667 17.066667 0 1 0 34.133333 0v-34.133334a17.066667 17.066667 0 1 0-34.133333 0M785.071616 938.666667v-34.133334a17.066667 17.066667 0 1 0-34.133333 0v34.133334a17.066667 17.066667 0 1 0 34.133333 0M614.404949 938.666667v-34.133334a17.066667 17.066667 0 1 0-34.133333 0v34.133334a17.066667 17.066667 0 1 0 34.133333 0" fill="#231F1F" p-id="1952"></path></svg>