<?xml version="1.0" standalone="no"?><!DOCTYPE svg PUBLIC "-//W3C//DTD SVG 1.1//EN" "http://www.w3.org/Graphics/SVG/1.1/DTD/svg11.dtd"><svg t="1555494974608" class="icon" style="" viewBox="0 0 1024 1024" version="1.1" xmlns="http://www.w3.org/2000/svg" p-id="3377" xmlns:xlink="http://www.w3.org/1999/xlink" width="200" height="200"><defs><style type="text/css"></style></defs><path d="M512 64c-188.21 0-341.33 153.12-341.33 341.33h64C234.67 252.17 358.83 128 512 128s277.33 124.17 277.33 277.33c0 92-105.53 181-192.14 277.07-69.92 77.59-74.62 119-97.2 160.26-19.76 36.1-50.41 53.34-94.66 53.34a128 128 0 0 1-128-128l-0.31-2.67h-64.44l0.8 6.79c2.2 104 87.46 187.88 192 187.88 67.62 0 119.77-29.94 150.8-86.59 7.44-13.59 13-26.5 18.41-39 12.74-29.52 25.92-60 70.2-109.18 16-17.77 33.21-35.82 49.84-53.28 78-81.94 158.76-166.68 158.76-266.63C853.33 217.12 700.21 64 512 64z" fill="" p-id="3378"></path><path d="M527 514.07c-63.73 51.08-143 114.63-143 230.82h64c0-85.47 57.81-131.81 119-180.87 53.75-43.08 109.31-87.64 109.31-158.68 0-94.11-76.56-170.67-170.67-170.67S335 311.23 335 405.33h64a106.67 106.67 0 0 1 213.33 0c-0.02 40.33-39.56 72.03-85.33 108.74z" fill="" p-id="3379"></path></svg>