<?xml version="1.0" standalone="no"?><!DOCTYPE svg PUBLIC "-//W3C//DTD SVG 1.1//EN" "http://www.w3.org/Graphics/SVG/1.1/DTD/svg11.dtd"><svg t="1555495095532" class="icon" style="" viewBox="0 0 1024 1024" version="1.1" xmlns="http://www.w3.org/2000/svg" p-id="8629" xmlns:xlink="http://www.w3.org/1999/xlink" width="200" height="200"><defs><style type="text/css"></style></defs><path d="M512 711.68c-102.4 0-189.44-81.92-189.44-189.44v-307.2c0-102.4 81.92-189.44 189.44-189.44 102.4 0 189.44 81.92 189.44 189.44v307.2c0 107.52-87.04 189.44-189.44 189.44z m0-629.76c-76.8 0-138.24 61.44-138.24 138.24v307.2c0 76.8 61.44 138.24 138.24 138.24 76.8 0 138.24-61.44 138.24-138.24v-307.2c0-76.8-61.44-138.24-138.24-138.24z" fill="" p-id="8630"></path><path d="M512 875.52c-194.56 0-358.4-148.48-358.4-327.68V465.92c0-15.36 10.24-25.6 25.6-25.6s25.6 10.24 25.6 25.6v87.04c0 153.6 138.24 276.48 307.2 276.48s307.2-122.88 307.2-276.48V465.92c0-15.36 10.24-25.6 25.6-25.6s25.6 10.24 25.6 25.6v87.04c0 179.2-163.84 322.56-358.4 322.56z" fill="" p-id="8631"></path><path d="M512 1013.76c-15.36 0-25.6-10.24-25.6-25.6v-138.24c0-15.36 10.24-25.6 25.6-25.6s25.6 10.24 25.6 25.6v138.24c0 15.36-10.24 25.6-25.6 25.6z" fill="" p-id="8632"></path><path d="M593.92 1024H430.08c-15.36 0-25.6-10.24-25.6-25.6s10.24-25.6 25.6-25.6h163.84c15.36 0 25.6 10.24 25.6 25.6s-10.24 25.6-25.6 25.6z" fill="" p-id="8633"></path></svg>