<?xml version="1.0" standalone="no"?><!DOCTYPE svg PUBLIC "-//W3C//DTD SVG 1.1//EN" "http://www.w3.org/Graphics/SVG/1.1/DTD/svg11.dtd"><svg t="1555494941000" class="icon" style="" viewBox="0 0 1024 1024" version="1.1" xmlns="http://www.w3.org/2000/svg" p-id="2660" xmlns:xlink="http://www.w3.org/1999/xlink" width="200" height="200"><defs><style type="text/css"></style></defs><path d="M510.9 937.9C275.4 937.9 84.5 747 84.5 511.6c0-235.5 190.9-426.3 426.3-426.3 235.5 0 426.3 190.9 426.3 426.3 0.1 235.4-190.8 426.3-426.2 426.3z m196.7-459.1h-164v-164c0-18.1-14.7-32.8-32.8-32.8-18.1 0-32.8 14.7-32.8 32.8v164H314c-18.1 0-32.8 14.7-32.8 32.8 0 18.1 14.7 32.8 32.8 32.8h164v164c0 18.1 14.7 32.8 32.8 32.8 18.1 0 32.8-14.7 32.8-32.8v-164h164c18.1 0 32.8-14.7 32.8-32.8 0-18.2-14.6-32.8-32.8-32.8z m0 0" p-id="2661"></path></svg>