<?xml version="1.0" standalone="no"?><!DOCTYPE svg PUBLIC "-//W3C//DTD SVG 1.1//EN" "http://www.w3.org/Graphics/SVG/1.1/DTD/svg11.dtd"><svg t="1555495144130" class="icon" style="" viewBox="0 0 1252 1024" version="1.1" xmlns="http://www.w3.org/2000/svg" p-id="9956" xmlns:xlink="http://www.w3.org/1999/xlink" width="244.53125" height="200"><defs><style type="text/css"></style></defs><path d="M430.222222 548.381432C323.318511 548.381432 234.666667 459.595867 234.666667 352.530921 234.666667 245.465975 323.318511 156.68041 430.222222 156.68041 537.125934 156.68041 625.777778 245.465975 625.777778 352.530921 625.777778 459.595867 537.125934 548.381432 430.222222 548.381432L430.222222 548.381432ZM430.222222 235.020613C365.037045 235.020613 312.888889 287.247417 312.888889 352.530921 312.888889 417.814423 365.037045 470.041227 430.222222 470.041227 495.4074 470.041227 547.555556 417.814423 547.555556 352.530921 547.555556 287.247417 495.4074 235.020613 430.222222 235.020613L430.222222 235.020613ZM625.777778 866.964931 591.881489 655.446378 495.4074 624.110296 518.874066 550.992773 659.674066 597.996897 701.3926 856.519571 625.777778 866.964931 625.777778 866.964931ZM234.666667 866.964931 156.444444 853.90823 198.162955 595.385556 338.962955 548.381432 362.429622 621.498955 265.955556 652.835037 234.666667 866.964931 234.666667 866.964931ZM782.222222 235.020613 938.666667 235.020613 938.666667 313.360819 782.222222 313.360819 782.222222 235.020613 782.222222 235.020613ZM782.222222 391.701024 1095.111111 391.701024 1095.111111 470.041227 782.222222 470.041227 782.222222 391.701024 782.222222 391.701024ZM782.222222 548.381432 1095.111111 548.381432 1095.111111 626.721637 782.222222 626.721637 782.222222 548.381432 782.222222 548.381432ZM782.222222 705.06184 1095.111111 705.06184 1095.111111 783.402045 782.222222 783.402045 782.222222 705.06184 782.222222 705.06184ZM430.222222 940.082454 821.333333 940.082454 821.333333 1018.422659 430.222222 1018.422659 430.222222 940.082454 430.222222 940.082454ZM1251.555556 1018.422659 899.555556 1018.422659 899.555556 940.082454 1173.333333 940.082454 1173.333333 78.340205 78.222222 78.340205 78.222222 940.082454 352 940.082454 352 1018.422659 0 1018.422659 0 0 1251.555556 0 1251.555556 1018.422659 1251.555556 1018.422659Z" p-id="9957"></path></svg>