<?xml version="1.0" standalone="no"?><!DOCTYPE svg PUBLIC "-//W3C//DTD SVG 1.1//EN" "http://www.w3.org/Graphics/SVG/1.1/DTD/svg11.dtd"><svg t="1555495150135" class="icon" style="" viewBox="0 0 1024 1024" version="1.1" xmlns="http://www.w3.org/2000/svg" p-id="10066" xmlns:xlink="http://www.w3.org/1999/xlink" width="200" height="200"><defs><style type="text/css"></style></defs><path d="M428.373333 574.327467c-148.923733 0-270.097067-121.1392-270.097066-270.097067C158.276267 155.306667 279.4496 34.133333 428.373333 34.133333c148.957867 0 270.1312 121.173333 270.1312 270.097067 0 148.957867-121.173333 270.097067-270.1312 270.097067zM428.373333 102.4a202.069333 202.069333 0 0 0-201.8304 201.8304 202.069333 202.069333 0 0 0 201.8304 201.864533 202.069333 202.069333 0 0 0 201.864534-201.864533A202.069333 202.069333 0 0 0 428.373333 102.4z" p-id="10067"></path><path d="M855.2448 1024h-68.266667v-79.0528c0-197.7344-160.8704-358.6048-358.570666-358.6048S69.802667 747.2128 69.802667 944.9472V1024h-68.266667v-79.0528c0-235.383467 191.488-426.871467 426.837333-426.871467 235.349333 0 426.837333 191.488 426.837334 426.871467V1024zM791.9616 113.800533H1024v68.266667h-232.0384zM791.9616 326.792533H1024v68.266667h-232.0384zM791.9616 527.837867H1024v68.266666h-232.0384z" p-id="10068"></path></svg>