<?xml version="1.0" standalone="no"?><!DOCTYPE svg PUBLIC "-//W3C//DTD SVG 1.1//EN" "http://www.w3.org/Graphics/SVG/1.1/DTD/svg11.dtd"><svg t="1555655573128" class="icon" style="" viewBox="0 0 1024 1024" version="1.1" xmlns="http://www.w3.org/2000/svg" p-id="38279" xmlns:xlink="http://www.w3.org/1999/xlink" width="200" height="200"><defs><style type="text/css"></style></defs><path d="M402.747 876.286L82.744 556.694c-24.992-24.96-24.992-65.421 0-90.382L402.747 146.72c24.992-24.96 65.505-24.96 90.498 0 24.991 24.96 24.991 65.42 0 90.382L282.49 447.585H896c35.36 0 64 28.604 64 63.919s-28.64 63.918-64 63.918H282.49l210.755 210.484c12.48 12.465 18.752 28.828 18.752 45.191 0 16.363-6.241 32.726-18.752 45.19-24.992 24.96-65.505 24.96-90.498 0v-0.001z" p-id="38280"></path></svg>