<?xml version="1.0" standalone="no"?><!DOCTYPE svg PUBLIC "-//W3C//DTD SVG 1.1//EN" "http://www.w3.org/Graphics/SVG/1.1/DTD/svg11.dtd"><svg t="1555649604786" class="icon" style="" viewBox="0 0 1024 1024" version="1.1" xmlns="http://www.w3.org/2000/svg" p-id="4674" xmlns:xlink="http://www.w3.org/1999/xlink" width="200" height="200"><defs><style type="text/css"></style></defs><path d="M509.866667 582.4c42.666667 0 76.8-34.133333 76.8-76.8v-130.133333c0-19.2-6.4-38.4-21.333334-53.333334-14.933333-12.8-34.133333-21.333333-53.333333-21.333333-42.666667 0-78.933333 34.133333-78.933333 76.8v128c0 42.666667 34.133333 76.8 76.8 76.8z" fill="#606060" p-id="4675"></path><path d="M512 0C228.266667 0 0 228.266667 0 512s228.266667 512 512 512 512-228.266667 512-512S795.733333 0 512 0z m-117.333333 377.6c0-66.133333 53.333333-119.466667 119.466666-119.466667 29.866667 0 59.733333 12.8 83.2 34.133334 21.333333 23.466667 34.133333 53.333333 34.133334 85.333333v130.133333c0 66.133333-53.333333 119.466667-119.466667 119.466667s-119.466667-53.333333-117.333333-119.466667v-130.133333zM533.333333 704v42.666667c0 12.8-8.533333 21.333333-21.333333 21.333333s-21.333333-8.533333-21.333333-21.333333v-42.666667c-96-10.666667-170.666667-91.733333-170.666667-189.866667 0-12.8 8.533333-21.333333 21.333333-21.333333s21.333333 8.533333 21.333334 21.333333c0 83.2 66.133333 149.333333 149.333333 149.333334s149.333333-66.133333 149.333333-149.333334c0-12.8 8.533333-21.333333 21.333334-21.333333s21.333333 8.533333 21.333333 21.333333c0 98.133333-74.666667 179.2-170.666667 189.866667z" fill="#606060" p-id="4676"></path></svg>