<?xml version="1.0" standalone="no"?><!DOCTYPE svg PUBLIC "-//W3C//DTD SVG 1.1//EN" "http://www.w3.org/Graphics/SVG/1.1/DTD/svg11.dtd"><svg t="1555649685670" class="icon" style="" viewBox="0 0 1024 1024" version="1.1" xmlns="http://www.w3.org/2000/svg" p-id="10178" xmlns:xlink="http://www.w3.org/1999/xlink" width="200" height="200"><defs><style type="text/css"></style></defs><path d="M512 1024C229.624242 1024 0 794.375758 0 512S229.624242 0 512 0 1024 229.624242 1024 512 794.375758 1024 512 1024z m0-930.909091C282.375758 93.090909 93.090909 282.375758 93.090909 512S282.375758 930.909091 512 930.909091 930.909091 741.624242 930.909091 512 741.624242 93.090909 512 93.090909z" fill="#666666" p-id="10179"></path><path d="M651.636364 561.648485c-62.060606 34.133333-124.121212 71.369697-179.975758 111.709091-58.957576 40.339394-86.884848 24.824242-80.678788-49.648485 3.10303-74.472727 3.10303-152.048485 0-226.521212-3.10303-74.472727 21.721212-93.090909 80.678788-49.648485 58.957576 40.339394 117.915152 77.575758 179.975758 111.709091 62.060606 37.236364 62.060606 68.266667 0 102.4z" fill="#666666" p-id="10180"></path></svg>