<?xml version="1.0" standalone="no"?><!DOCTYPE svg PUBLIC "-//W3C//DTD SVG 1.1//EN" "http://www.w3.org/Graphics/SVG/1.1/DTD/svg11.dtd"><svg t="1555649663299" class="icon" style="" viewBox="0 0 1024 1024" version="1.1" xmlns="http://www.w3.org/2000/svg" p-id="9424" xmlns:xlink="http://www.w3.org/1999/xlink" width="200" height="200"><defs><style type="text/css"></style></defs><path d="M512 916.2992833422222C278.0398307555555 916.2992833422222 87.69865841777772 725.9581110044444 87.69865841777772 491.99794176S278.0398307555555 67.69660017777784 512 67.69660017777784s424.3013415822223 190.34117347555554 424.3013415822223 424.3013415822223-190.34117347555554 424.3013415822223-424.3013415822223 424.3013415822223z m0-766.3975742577777C323.3665956977778 149.90170908444446 169.9017124977778 303.3645374577777 169.9017124977778 491.99794176s153.4648832 342.0982875022222 342.0982875022222 342.0982875022222S854.0982875022222 680.6313460622222 854.0982875022222 491.99794176s-153.4648832-342.09623267555554-342.0982875022222-342.09623267555554z" fill="#d81e06" p-id="9425"></path><path d="M512 491.99794176m-228.11347626666668 0a228.11347626666668 228.11347626666668 0 1 0 456.22695253333336 0 228.11347626666668 228.11347626666668 0 1 0-456.22695253333336 0Z" fill="#d81e06" p-id="9426"></path></svg>