<?xml version="1.0" standalone="no"?><!DOCTYPE svg PUBLIC "-//W3C//DTD SVG 1.1//EN" "http://www.w3.org/Graphics/SVG/1.1/DTD/svg11.dtd"><svg t="1555650535633" class="icon" style="" viewBox="0 0 1024 1024" version="1.1" xmlns="http://www.w3.org/2000/svg" p-id="18417" xmlns:xlink="http://www.w3.org/1999/xlink" width="200" height="200"><defs><style type="text/css"></style></defs><path d="M512 0C230.4 0 0 230.4 0 512s230.4 512 512 512 512-230.4 512-512S793.6 0 512 0z m0 960C265.6 960 64 758.4 64 512S265.6 64 512 64s448 201.6 448 448-201.6 448-448 448z" p-id="18418"></path><path d="M537.6 230.4c-16-12.8-38.4-12.8-54.4 0l-208 169.6c-12.8 9.6-16 32-3.2 44.8 9.6 12.8 32 16 44.8 3.2L480 316.8v496c0 19.2 12.8 32 32 32s32-12.8 32-32V316.8l163.2 134.4c6.4 6.4 12.8 6.4 19.2 6.4 9.6 0 19.2-3.2 25.6-12.8 9.6-12.8 9.6-35.2-3.2-44.8l-211.2-169.6z" p-id="18419"></path></svg>