<?xml version="1.0" standalone="no"?><!DOCTYPE svg PUBLIC "-//W3C//DTD SVG 1.1//EN" "http://www.w3.org/Graphics/SVG/1.1/DTD/svg11.dtd"><svg t="1555650424008" class="icon" style="" viewBox="0 0 1024 1024" version="1.1" xmlns="http://www.w3.org/2000/svg" p-id="17082" xmlns:xlink="http://www.w3.org/1999/xlink" width="200" height="200"><defs><style type="text/css"></style></defs><path d="M511.865 1023.838C229.61 1023.838 0 794.203 0 511.922 0 229.637 229.61 0 511.865 0c282.311 0 511.973 229.637 511.973 511.922C1023.839 794.203 794.176 1023.838 511.865 1023.838L511.865 1023.838zM511.865 53.888c-252.536 0-457.978 205.468-457.978 458.034 0 252.563 205.442 458.033 457.978 458.033 252.592 0 458.09-205.472 458.09-458.033C969.957 259.354 764.457 53.888 511.865 53.888L511.865 53.888zM749.383 312.734c-12.958 0-24.552 5.836-32.316 15.013L435.827 608.96 305.195 478.328l-0.04 0.039c-7.721-8.072-18.588-13.1-30.631-13.1-23.414 0-42.395 18.976-42.395 42.395 0 12.195 5.16 23.186 13.411 30.916l130.335 130.334-0.13 0.126 27.773 27.775c7.767 8.764 19.095 14.29 31.726 14.29 12.005 0 22.841-4.995 30.55-13.015l0.059 0 310.165-310.143c9.567-7.761 15.691-19.607 15.691-32.888C791.71 331.681 772.763 312.734 749.383 312.734L749.383 312.734z" p-id="17083"></path></svg>