<?xml version="1.0" standalone="no"?><!DOCTYPE svg PUBLIC "-//W3C//DTD SVG 1.1//EN" "http://www.w3.org/Graphics/SVG/1.1/DTD/svg11.dtd"><svg t="1555654389765" class="icon" style="" viewBox="0 0 1024 1024" version="1.1" xmlns="http://www.w3.org/2000/svg" p-id="37443" xmlns:xlink="http://www.w3.org/1999/xlink" width="200" height="200"><defs><style type="text/css"></style></defs><path d="M767.146667 545.578667a22.442667 22.442667 0 0 1-10.88 13.525333l-133.461334 73.258667 0.042667 0.085333 88.789333 146.474667a20.608 20.608 0 0 1-8.106666 28.885333 22.784 22.784 0 0 1-30.293334-7.722667l-88.832-146.474666v-0.128l-152.746666 83.84a24.448 24.448 0 0 1-17.749334 2.261333 23.210667 23.210667 0 0 1-14.208-10.325333 126.293333 126.293333 0 0 1-16.554666-89.6 130.56 130.56 0 0 1 19.242666-47.573334c4.394667-6.741333 9.642667-12.885333 15.274667-18.773333L341.930667 413.44c-32.512-0.426667-63.061333-16.896-79.658667-44.330667a42.026667 42.026667 0 0 1-4.650667-33.621333v-0.042667c3.285333-11.52 11.050667-21.077333 21.888-27.050666l162.304-89.088c10.837333-5.973333 23.466667-7.552 35.541334-4.48 12.074667 3.029333 22.144 10.410667 28.373333 20.650666 12.416 20.48 15.701333 44.416 9.216 67.370667a85.930667 85.930667 0 0 1-8.96 20.096l62.421333 82.432c4.224 5.632 5.290667 12.501333 3.541334 18.730667a22.186667 22.186667 0 0 1-8.96 12.288 24.192 24.192 0 0 1-32.682667-5.034667l-57.301333-75.733333c-0.64 0.384-1.152 0.853333-1.792 1.28l-29.141334 15.957333a24.064 24.064 0 0 1-32-8.106667 21.632 21.632 0 0 1 8.661334-30.293333l29.141333-16.042667c21.674667-11.904 29.738667-40.149333 17.237333-60.714666l-162.261333 89.173333c9.898667 16.341333 29.738667 24.917333 49.28 21.333333a23.68 23.68 0 0 1 25.429333 12.074667l1.92 3.882667 76.117334 160.64 117.546666-64.554667a146.816 146.816 0 0 1 147.882667 4.096 135.893333 135.893333 0 0 1 43.861333 44.373333 21.077333 21.077333 0 0 1 2.304 16.810667z m-72.064-24.106667a97.962667 97.962667 0 0 0-98.602667-2.730667l-121.728 66.816c-13.525333 7.424-24.533333 17.493333-32.64 29.909334-6.442667 9.813333-10.752 20.48-12.842667 31.786666-2.474667 13.141333-1.792 26.453333 1.877334 39.125334l278.954666-153.173334a93.312 93.312 0 0 0-15.018666-11.733333z" p-id="37444"></path><path d="M512 0C228.693333 0 0 228.693333 0 512s228.693333 512 512 512 512-228.693333 512-512S795.306667 0 512 0z m0 972.8C256 972.8 51.2 768 51.2 512 51.2 256 256 51.2 512 51.2 768 51.2 972.8 256 972.8 512c0 256-208.213333 460.8-460.8 460.8z" p-id="37445"></path></svg>