<?xml version="1.0" standalone="no"?><!DOCTYPE svg PUBLIC "-//W3C//DTD SVG 1.1//EN" "http://www.w3.org/Graphics/SVG/1.1/DTD/svg11.dtd"><svg t="1555652477291" class="icon" style="" viewBox="0 0 1024 1024" version="1.1" xmlns="http://www.w3.org/2000/svg" p-id="25011" xmlns:xlink="http://www.w3.org/1999/xlink" width="200" height="200"><defs><style type="text/css"></style></defs><path d="M854.229333 767.914667 854.229333 682.581333 768.896 682.581333 768.896 767.914667 683.562667 767.914667 683.562667 853.248 768.896 853.248 768.896 938.581333 854.229333 938.581333 854.229333 853.248 939.562667 853.248 939.562667 767.914667Z" p-id="25012"></path><path d="M641.792 725.248l84.437333 0L726.229333 682.666667C660.138667 662.357333 597.333333 639.914667 597.333333 639.914667l0-42.666667c0 0 85.333333-85.248 85.333333-256 0-42.666667 0.042667-53.802667 0.042667-84.650667 0-107.349333-77.226667-165.632-169.813333-171.093333L512.896 85.418667c-0.170667 0-0.298667 0.042667-0.469333 0.042667-0.170667 0-0.298667-0.042667-0.469333-0.042667l0 0.128c-92.586667 5.461333-169.813333 63.744-169.813333 171.093333 0 30.848 0.042667 41.984 0.042667 84.650667 0 170.752 85.333333 256 85.333333 256l0 42.666667c0 0-64.341333 23.04-128.896 42.752-48.213333 14.72-88.448 29.056-128 42.666667-85.333333 29.354667-85.333333 170.666667-85.333333 170.666667l0 42.666667 640 0 0-42.752-83.541333 0L641.749333 725.248z" p-id="25013"></path></svg>